<mxfile host="app.diagrams.net" modified="2024-05-29T16:31:04.803Z" agent="Mozilla/5.0 (Macintosh; Intel Mac OS X 10_15_7) AppleWebKit/537.36 (KHTML, like Gecko) Chrome/125.0.0.0 Safari/537.36" etag="EjAZWqPcXRb62A5aG-Sb" version="24.3.1" type="github">
  <diagram id="kF0ZCnfXTp-EgcWGSxLY" name="Page-1">
    <mxGraphModel dx="2074" dy="1121" grid="0" gridSize="10" guides="1" tooltips="1" connect="1" arrows="1" fold="1" page="1" pageScale="1" pageWidth="1169" pageHeight="827" background="#1A1A1A" math="0" shadow="0">
      <root>
        <mxCell id="0" />
        <mxCell id="1" parent="0" />
        <mxCell id="M_AykoBK8Z3wMHW0GZu6-1" value="" style="shape=cube;whiteSpace=wrap;html=1;boundedLbl=1;backgroundOutline=1;darkOpacity=0.05;darkOpacity2=0.1;shadow=0;sketch=0;fontFamily=Verdana;fontSize=12;fontColor=#FFFFFF;strokeColor=none;strokeWidth=7;fillColor=#A680B8;gradientColor=#1A1A1A;gradientDirection=west;" parent="1" vertex="1">
          <mxGeometry x="620" y="278" width="30" height="250" as="geometry" />
        </mxCell>
        <mxCell id="M_AykoBK8Z3wMHW0GZu6-2" value="" style="shape=cube;whiteSpace=wrap;html=1;boundedLbl=1;backgroundOutline=1;darkOpacity=0.05;darkOpacity2=0.1;shadow=0;sketch=0;fontFamily=Verdana;fontSize=12;fontColor=#FFFFFF;strokeColor=none;strokeWidth=7;fillColor=#F19C99;gradientColor=#1A1A1A;gradientDirection=west;" parent="1" vertex="1">
          <mxGeometry x="535" y="278" width="30" height="250" as="geometry" />
        </mxCell>
        <mxCell id="M_AykoBK8Z3wMHW0GZu6-3" value="" style="shape=cube;whiteSpace=wrap;html=1;boundedLbl=1;backgroundOutline=1;darkOpacity=0.05;darkOpacity2=0.1;shadow=0;sketch=0;fontFamily=Verdana;fontSize=12;fontColor=#FFFFFF;strokeColor=none;strokeWidth=7;fillColor=#97D077;gradientColor=#1A1A1A;gradientDirection=west;" parent="1" vertex="1">
          <mxGeometry x="575" y="278" width="30" height="250" as="geometry" />
        </mxCell>
        <mxCell id="M_AykoBK8Z3wMHW0GZu6-4" value="" style="shape=cube;whiteSpace=wrap;html=1;boundedLbl=1;backgroundOutline=1;darkOpacity=0.05;darkOpacity2=0.1;shadow=0;sketch=0;fontFamily=Verdana;fontSize=12;fontColor=#FFFFFF;strokeColor=none;strokeWidth=7;fillColor=#A9C4EB;gradientColor=#1A1A1A;gradientDirection=west;" parent="1" vertex="1">
          <mxGeometry x="495" y="278" width="30" height="250" as="geometry" />
        </mxCell>
        <mxCell id="M_AykoBK8Z3wMHW0GZu6-5" value="" style="shape=cube;whiteSpace=wrap;html=1;boundedLbl=1;backgroundOutline=1;darkOpacity=0.05;darkOpacity2=0.1;shadow=0;sketch=0;fontFamily=Verdana;fontSize=12;fontColor=#FFFFFF;strokeColor=none;strokeWidth=7;fillColor=#FFB570;gradientColor=#1A1A1A;gradientDirection=west;" parent="1" vertex="1">
          <mxGeometry x="455" y="278" width="30" height="250" as="geometry" />
        </mxCell>
        <mxCell id="M_AykoBK8Z3wMHW0GZu6-6" value="" style="shape=cube;whiteSpace=wrap;html=1;boundedLbl=1;backgroundOutline=1;darkOpacity=0.05;darkOpacity2=0.1;shadow=0;sketch=0;fontFamily=Verdana;fontSize=12;fontColor=#FFFFFF;strokeColor=none;strokeWidth=7;fillColor=#FFF4C3;gradientColor=#1A1A1A;gradientDirection=west;" parent="1" vertex="1">
          <mxGeometry x="665" y="278" width="30" height="250" as="geometry" />
        </mxCell>
        <mxCell id="M_AykoBK8Z3wMHW0GZu6-7" value="" style="shape=waypoint;sketch=0;fillStyle=solid;size=6;pointerEvents=1;points=[];fillColor=none;resizable=0;rotatable=0;perimeter=centerPerimeter;snapToPoint=1;shadow=0;fontFamily=Verdana;fontSize=12;fontColor=#FFFFFF;strokeColor=#719C59;strokeWidth=2;" parent="1" vertex="1">
          <mxGeometry x="580" y="288" width="40" height="40" as="geometry" />
        </mxCell>
        <mxCell id="M_AykoBK8Z3wMHW0GZu6-8" value="" style="shape=waypoint;sketch=0;fillStyle=solid;size=6;pointerEvents=1;points=[];fillColor=none;resizable=0;rotatable=0;perimeter=centerPerimeter;snapToPoint=1;shadow=0;fontFamily=Verdana;fontSize=12;fontColor=#FFFFFF;strokeColor=#7F628C;strokeWidth=2;" parent="1" vertex="1">
          <mxGeometry x="625" y="390" width="40" height="40" as="geometry" />
        </mxCell>
        <mxCell id="M_AykoBK8Z3wMHW0GZu6-9" value="" style="shape=waypoint;sketch=0;fillStyle=solid;size=6;pointerEvents=1;points=[];fillColor=none;resizable=0;rotatable=0;perimeter=centerPerimeter;snapToPoint=1;shadow=0;fontFamily=Verdana;fontSize=12;fontColor=#FFFFFF;strokeColor=#C2A54E;strokeWidth=2;" parent="1" vertex="1">
          <mxGeometry x="670" y="500" width="40" height="40" as="geometry" />
        </mxCell>
        <mxCell id="M_AykoBK8Z3wMHW0GZu6-10" value="" style="shape=waypoint;sketch=0;fillStyle=solid;size=6;pointerEvents=1;points=[];fillColor=none;resizable=0;rotatable=0;perimeter=centerPerimeter;snapToPoint=1;shadow=0;fontFamily=Verdana;fontSize=12;fontColor=#FFFFFF;strokeColor=#B85450;strokeWidth=2;" parent="1" vertex="1">
          <mxGeometry x="540" y="500" width="40" height="40" as="geometry" />
        </mxCell>
        <mxCell id="M_AykoBK8Z3wMHW0GZu6-11" value="" style="shape=waypoint;sketch=0;fillStyle=solid;size=6;pointerEvents=1;points=[];fillColor=none;resizable=0;rotatable=0;perimeter=centerPerimeter;snapToPoint=1;shadow=0;fontFamily=Verdana;fontSize=12;fontColor=#FFFFFF;strokeColor=#6281AD;strokeWidth=2;" parent="1" vertex="1">
          <mxGeometry x="500" y="390" width="40" height="40" as="geometry" />
        </mxCell>
        <mxCell id="M_AykoBK8Z3wMHW0GZu6-12" value="" style="shape=waypoint;sketch=0;fillStyle=solid;size=6;pointerEvents=1;points=[];fillColor=none;resizable=0;rotatable=0;perimeter=centerPerimeter;snapToPoint=1;shadow=0;fontFamily=Verdana;fontSize=12;fontColor=#FFFFFF;strokeColor=#B07D4D;strokeWidth=2;" parent="1" vertex="1">
          <mxGeometry x="460" y="288" width="40" height="40" as="geometry" />
        </mxCell>
        <mxCell id="M_AykoBK8Z3wMHW0GZu6-13" value="" style="endArrow=none;html=1;rounded=0;fontFamily=Verdana;fontSize=12;fontColor=#FFFFFF;strokeColor=#719C59;startArrow=none;" parent="1" source="M_AykoBK8Z3wMHW0GZu6-14" edge="1">
          <mxGeometry width="50" height="50" relative="1" as="geometry">
            <mxPoint x="595" y="648" as="sourcePoint" />
            <mxPoint x="805" y="308" as="targetPoint" />
          </mxGeometry>
        </mxCell>
        <mxCell id="M_AykoBK8Z3wMHW0GZu6-14" value="" style="shape=waypoint;sketch=0;fillStyle=solid;size=6;pointerEvents=1;points=[];fillColor=none;resizable=0;rotatable=0;perimeter=centerPerimeter;snapToPoint=1;shadow=0;fontFamily=Verdana;fontSize=12;fontColor=#FFFFFF;strokeColor=#719C59;strokeWidth=2;" parent="1" vertex="1">
          <mxGeometry x="785" y="288" width="40" height="40" as="geometry" />
        </mxCell>
        <mxCell id="M_AykoBK8Z3wMHW0GZu6-15" value="" style="endArrow=none;html=1;rounded=0;fontFamily=Verdana;fontSize=12;fontColor=#FFFFFF;strokeColor=#719C59;" parent="1" source="M_AykoBK8Z3wMHW0GZu6-7" edge="1">
          <mxGeometry width="50" height="50" relative="1" as="geometry">
            <mxPoint x="600" y="308" as="sourcePoint" />
            <mxPoint x="805" y="308" as="targetPoint" />
          </mxGeometry>
        </mxCell>
        <mxCell id="M_AykoBK8Z3wMHW0GZu6-16" value="" style="endArrow=none;html=1;rounded=0;fontFamily=Verdana;fontSize=12;fontColor=#FFFFFF;strokeColor=#7F628C;entryX=0.45;entryY=0.575;entryDx=0;entryDy=0;entryPerimeter=0;exitX=0.45;exitY=0.55;exitDx=0;exitDy=0;exitPerimeter=0;" parent="1" source="M_AykoBK8Z3wMHW0GZu6-8" target="M_AykoBK8Z3wMHW0GZu6-17" edge="1">
          <mxGeometry width="50" height="50" relative="1" as="geometry">
            <mxPoint x="595" y="690" as="sourcePoint" />
            <mxPoint x="785" y="430" as="targetPoint" />
          </mxGeometry>
        </mxCell>
        <mxCell id="M_AykoBK8Z3wMHW0GZu6-17" value="" style="shape=waypoint;sketch=0;fillStyle=solid;size=6;pointerEvents=1;points=[];fillColor=none;resizable=0;rotatable=0;perimeter=centerPerimeter;snapToPoint=1;shadow=0;fontFamily=Verdana;fontSize=12;fontColor=#FFFFFF;strokeColor=#7F628C;strokeWidth=2;" parent="1" vertex="1">
          <mxGeometry x="785" y="390" width="40" height="40" as="geometry" />
        </mxCell>
        <mxCell id="M_AykoBK8Z3wMHW0GZu6-18" value="" style="endArrow=none;html=1;rounded=0;fontFamily=Verdana;fontSize=12;fontColor=#FFFFFF;strokeColor=#C2A54E;" parent="1" source="M_AykoBK8Z3wMHW0GZu6-19" target="M_AykoBK8Z3wMHW0GZu6-9" edge="1">
          <mxGeometry width="50" height="50" relative="1" as="geometry">
            <mxPoint x="595" y="709" as="sourcePoint" />
            <mxPoint x="645" y="659" as="targetPoint" />
          </mxGeometry>
        </mxCell>
        <mxCell id="M_AykoBK8Z3wMHW0GZu6-19" value="" style="shape=waypoint;sketch=0;fillStyle=solid;size=6;pointerEvents=1;points=[];fillColor=none;resizable=0;rotatable=0;perimeter=centerPerimeter;snapToPoint=1;shadow=0;fontFamily=Verdana;fontSize=12;fontColor=#FFFFFF;strokeColor=#C2A54E;strokeWidth=2;" parent="1" vertex="1">
          <mxGeometry x="785" y="500" width="40" height="40" as="geometry" />
        </mxCell>
        <mxCell id="M_AykoBK8Z3wMHW0GZu6-20" value="&lt;h2&gt;&lt;font color=&quot;#688f52&quot;&gt;Heading&lt;/font&gt;&lt;/h2&gt;&lt;p&gt;Lorem ipsum dolor sit amet, consectetur adipisicing elit, sed do eiusmod tempor incididunt ut labore et dolore magna aliqua.&lt;/p&gt;" style="text;html=1;strokeColor=none;fillColor=none;spacing=5;spacingTop=-20;whiteSpace=wrap;overflow=hidden;rounded=0;shadow=0;sketch=0;fontFamily=Verdana;fontSize=12;fontColor=#FFFFFF;" parent="1" vertex="1">
          <mxGeometry x="815" y="263" width="319" height="90" as="geometry" />
        </mxCell>
        <mxCell id="M_AykoBK8Z3wMHW0GZu6-21" value="&lt;h2&gt;&lt;font color=&quot;#856794&quot;&gt;Heading&lt;/font&gt;&lt;/h2&gt;&lt;p&gt;Lorem ipsum dolor sit amet, consectetur adipisicing elit, sed do eiusmod tempor incididunt ut labore et dolore magna aliqua.&lt;/p&gt;" style="text;html=1;strokeColor=none;fillColor=none;spacing=5;spacingTop=-20;whiteSpace=wrap;overflow=hidden;rounded=0;shadow=0;sketch=0;fontFamily=Verdana;fontSize=12;fontColor=#FFFFFF;" parent="1" vertex="1">
          <mxGeometry x="815" y="365" width="317" height="90" as="geometry" />
        </mxCell>
        <mxCell id="M_AykoBK8Z3wMHW0GZu6-22" value="&lt;h2&gt;&lt;font color=&quot;#ffd966&quot;&gt;Heading&lt;/font&gt;&lt;/h2&gt;&lt;p&gt;Lorem ipsum dolor sit amet, consectetur adipisicing elit, sed do eiusmod tempor incididunt ut labore et dolore magna aliqua.&lt;/p&gt;" style="text;html=1;strokeColor=none;fillColor=none;spacing=5;spacingTop=-20;whiteSpace=wrap;overflow=hidden;rounded=0;shadow=0;sketch=0;fontFamily=Verdana;fontSize=12;fontColor=#FFFFFF;" parent="1" vertex="1">
          <mxGeometry x="815" y="475" width="313" height="90" as="geometry" />
        </mxCell>
        <mxCell id="M_AykoBK8Z3wMHW0GZu6-23" value="" style="endArrow=none;html=1;rounded=0;fontFamily=Verdana;fontSize=12;fontColor=#FFFFFF;strokeColor=#B85450;" parent="1" source="M_AykoBK8Z3wMHW0GZu6-24" target="M_AykoBK8Z3wMHW0GZu6-10" edge="1">
          <mxGeometry width="50" height="50" relative="1" as="geometry">
            <mxPoint x="334" y="579" as="sourcePoint" />
            <mxPoint x="555" y="520" as="targetPoint" />
          </mxGeometry>
        </mxCell>
        <mxCell id="M_AykoBK8Z3wMHW0GZu6-24" value="" style="shape=waypoint;sketch=0;fillStyle=solid;size=6;pointerEvents=1;points=[];fillColor=none;resizable=0;rotatable=0;perimeter=centerPerimeter;snapToPoint=1;shadow=0;fontFamily=Verdana;fontSize=12;fontColor=#FFFFFF;strokeColor=#B85450;strokeWidth=2;" parent="1" vertex="1">
          <mxGeometry x="342" y="500" width="40" height="40" as="geometry" />
        </mxCell>
        <mxCell id="M_AykoBK8Z3wMHW0GZu6-25" value="" style="shape=waypoint;sketch=0;fillStyle=solid;size=6;pointerEvents=1;points=[];fillColor=none;resizable=0;rotatable=0;perimeter=centerPerimeter;snapToPoint=1;shadow=0;fontFamily=Verdana;fontSize=12;fontColor=#FFFFFF;strokeColor=#6281AD;strokeWidth=2;" parent="1" vertex="1">
          <mxGeometry x="347" y="390" width="40" height="40" as="geometry" />
        </mxCell>
        <mxCell id="M_AykoBK8Z3wMHW0GZu6-26" value="" style="shape=waypoint;sketch=0;fillStyle=solid;size=6;pointerEvents=1;points=[];fillColor=none;resizable=0;rotatable=0;perimeter=centerPerimeter;snapToPoint=1;shadow=0;fontFamily=Verdana;fontSize=12;fontColor=#FFFFFF;strokeColor=#B07D4D;strokeWidth=2;" parent="1" vertex="1">
          <mxGeometry x="347" y="288" width="40" height="40" as="geometry" />
        </mxCell>
        <mxCell id="M_AykoBK8Z3wMHW0GZu6-27" value="" style="endArrow=none;html=1;rounded=0;fontFamily=Verdana;fontSize=12;fontColor=#FFFFFF;strokeColor=#6281AD;" parent="1" source="M_AykoBK8Z3wMHW0GZu6-25" target="M_AykoBK8Z3wMHW0GZu6-11" edge="1">
          <mxGeometry width="50" height="50" relative="1" as="geometry">
            <mxPoint x="644" y="644" as="sourcePoint" />
            <mxPoint x="694" y="594" as="targetPoint" />
          </mxGeometry>
        </mxCell>
        <mxCell id="M_AykoBK8Z3wMHW0GZu6-28" value="" style="endArrow=none;html=1;rounded=0;fontFamily=Verdana;fontSize=12;fontColor=#FFFFFF;strokeColor=#B07D4D;" parent="1" source="M_AykoBK8Z3wMHW0GZu6-26" target="M_AykoBK8Z3wMHW0GZu6-12" edge="1">
          <mxGeometry width="50" height="50" relative="1" as="geometry">
            <mxPoint x="644" y="432" as="sourcePoint" />
            <mxPoint x="694" y="382" as="targetPoint" />
          </mxGeometry>
        </mxCell>
        <mxCell id="M_AykoBK8Z3wMHW0GZu6-29" value="&lt;h2&gt;&lt;font color=&quot;#b85450&quot;&gt;Heading&lt;/font&gt;&lt;/h2&gt;&lt;p&gt;Lorem ipsum dolor sit amet, consectetur adipisicing elit, sed do eiusmod tempor incididunt ut labore et dolore magna aliqua.&lt;/p&gt;" style="text;html=1;strokeColor=none;fillColor=none;spacing=5;spacingTop=-20;whiteSpace=wrap;overflow=hidden;rounded=0;shadow=0;sketch=0;fontFamily=Verdana;fontSize=12;fontColor=#FFFFFF;align=right;" parent="1" vertex="1">
          <mxGeometry x="35" y="475" width="314" height="90" as="geometry" />
        </mxCell>
        <mxCell id="M_AykoBK8Z3wMHW0GZu6-30" value="&lt;h2&gt;&lt;font color=&quot;#6281ad&quot;&gt;Heading&lt;/font&gt;&lt;/h2&gt;&lt;p&gt;Lorem ipsum dolor sit amet, consectetur adipisicing elit, sed do eiusmod tempor incididunt ut labore et dolore magna aliqua.&lt;/p&gt;" style="text;html=1;strokeColor=none;fillColor=none;spacing=5;spacingTop=-20;whiteSpace=wrap;overflow=hidden;rounded=0;shadow=0;sketch=0;fontFamily=Verdana;fontSize=12;fontColor=#FFFFFF;align=right;" parent="1" vertex="1">
          <mxGeometry x="35" y="365" width="319" height="90" as="geometry" />
        </mxCell>
        <mxCell id="M_AykoBK8Z3wMHW0GZu6-31" value="&lt;h2&gt;&lt;font color=&quot;#b07d4d&quot;&gt;Heading&lt;/font&gt;&lt;/h2&gt;&lt;p&gt;Lorem ipsum dolor sit amet, consectetur adipisicing elit, sed do eiusmod tempor incididunt ut labore et dolore magna aliqua.&lt;/p&gt;" style="text;html=1;strokeColor=none;fillColor=none;spacing=5;spacingTop=-20;whiteSpace=wrap;overflow=hidden;rounded=0;shadow=0;sketch=0;fontFamily=Verdana;fontSize=12;fontColor=#FFFFFF;align=right;" parent="1" vertex="1">
          <mxGeometry x="44" y="263" width="310" height="90" as="geometry" />
        </mxCell>
        <mxCell id="68fyTrOjilLXOY9agqW9-1" value="" style="html=1;shadow=0;dashed=0;align=center;verticalAlign=middle;shape=mxgraph.arrows2.uTurnArrow;dy=4;arrowHead=26;dx2=25;rotation=90;fillColor=#FFB570;strokeColor=#d79b00;" vertex="1" parent="1">
          <mxGeometry x="460" y="216" width="47.5" height="53.5" as="geometry" />
        </mxCell>
        <mxCell id="68fyTrOjilLXOY9agqW9-2" value="" style="html=1;shadow=0;dashed=0;align=center;verticalAlign=middle;shape=mxgraph.arrows2.uTurnArrow;dy=4;arrowHead=26;dx2=25;rotation=-90;fillColor=#dae8fc;strokeColor=#6c8ebf;flipV=1;" vertex="1" parent="1">
          <mxGeometry x="522" y="533" width="37" height="56.5" as="geometry" />
        </mxCell>
        <mxCell id="68fyTrOjilLXOY9agqW9-5" value="" style="html=1;shadow=0;dashed=0;align=center;verticalAlign=middle;shape=mxgraph.arrows2.uTurnArrow;dy=4;arrowHead=26;dx2=25;rotation=90;fillColor=#EA6B66;strokeColor=#b85450;" vertex="1" parent="1">
          <mxGeometry x="542" y="216" width="47.5" height="53.5" as="geometry" />
        </mxCell>
      </root>
    </mxGraphModel>
  </diagram>
</mxfile>
